# MagicaVoxel @ Ephtracy

# group
o 

# material
mtllib Lever 1.mtl
usemtl palette

# normals
vn -1 0 0
vn 1 0 0
vn 0 0 1
vn 0 0 -1
vn 0 -1 0
vn 0 1 0

# texcoords
vt 0.537109 0.5
vt 0.841797 0.5
vt 0.873047 0.5
vt 0.982422 0.5
vt 0.994141 0.5

# verts
v -0.4 0 0.9
v -0.4 0 -1
v -0.4 0.1 0.8
v -0.4 0.1 -0.9
v -0.4 0.2 0.9
v -0.4 0.2 0.8
v -0.4 0.2 -0.9
v -0.4 0.2 -1
v -0.3 0 1
v -0.3 0 0.9
v -0.3 0 -1
v -0.3 0 -1.1
v -0.3 0.2 1
v -0.3 0.2 0.9
v -0.3 0.2 0.8
v -0.3 0.2 -0.9
v -0.3 0.2 -1
v -0.3 0.2 -1.1
v -0.3 0.3 0.9
v -0.3 0.3 -1
v -0.1 0.3 0.1
v -0.1 0.3 -0.1
v -0.1 0.4 0.1
v -0.1 0.4 0
v -0.1 0.4 -0.1
v -0.1 0.4 -0.2
v -0.1 0.5 0
v -0.1 0.5 -0.1
v -0.1 0.5 -0.2
v -0.1 0.5 -0.3
v -0.1 0.6 -0.1
v -0.1 0.6 -0.2
v -0.1 0.6 -0.3
v -0.1 0.6 -0.4
v -0.1 0.7 -0.2
v -0.1 0.7 -0.3
v -0.1 0.7 -0.4
v -0.1 0.7 -0.5
v -0.1 0.8 -0.3
v -0.1 0.8 -0.4
v -0.1 0.8 -0.5
v -0.1 0.8 -0.6
v -0.1 0.9 -0.4
v -0.1 0.9 -0.5
v -0.1 0.9 -0.6
v -0.1 0.9 -0.7
v -0.1 1 -0.5
v -0.1 1 -0.6
v -0.1 1 -0.7
v -0.1 1 -0.9
v -0.1 1.1 -0.6
v -0.1 1.1 -0.7
v -0.1 1.2 -0.7
v -0.1 1.2 -0.9
v 0.1 0.3 0.1
v 0.1 0.3 -0.1
v 0.1 0.4 0.1
v 0.1 0.4 0
v 0.1 0.4 -0.1
v 0.1 0.4 -0.2
v 0.1 0.5 0
v 0.1 0.5 -0.1
v 0.1 0.5 -0.2
v 0.1 0.5 -0.3
v 0.1 0.6 -0.1
v 0.1 0.6 -0.2
v 0.1 0.6 -0.3
v 0.1 0.6 -0.4
v 0.1 0.7 -0.2
v 0.1 0.7 -0.3
v 0.1 0.7 -0.4
v 0.1 0.7 -0.5
v 0.1 0.8 -0.3
v 0.1 0.8 -0.4
v 0.1 0.8 -0.5
v 0.1 0.8 -0.6
v 0.1 0.9 -0.4
v 0.1 0.9 -0.5
v 0.1 0.9 -0.6
v 0.1 0.9 -0.7
v 0.1 1 -0.5
v 0.1 1 -0.6
v 0.1 1 -0.7
v 0.1 1 -0.9
v 0.1 1.1 -0.6
v 0.1 1.1 -0.7
v 0.1 1.2 -0.7
v 0.1 1.2 -0.9
v 0.3 0 1
v 0.3 0 0.9
v 0.3 0 -1
v 0.3 0 -1.1
v 0.3 0.2 1
v 0.3 0.2 0.9
v 0.3 0.2 0.8
v 0.3 0.2 -0.9
v 0.3 0.2 -1
v 0.3 0.2 -1.1
v 0.3 0.3 0.9
v 0.3 0.3 -1
v 0.4 0 0.9
v 0.4 0 -1
v 0.4 0.1 0.8
v 0.4 0.1 -0.9
v 0.4 0.2 0.9
v 0.4 0.2 0.8
v 0.4 0.2 -0.9
v 0.4 0.2 -1
v -0.3 0 1
v -0.3 0.2 1
v -0.2 0.1 1
v -0.2 0.2 1
v 0.2 0.1 1
v 0.2 0.2 1
v 0.3 0 1
v 0.3 0.2 1
v -0.4 0 0.9
v -0.4 0.2 0.9
v -0.3 0 0.9
v -0.3 0.2 0.9
v -0.3 0.3 0.9
v -0.2 0.2 0.9
v 0.2 0.2 0.9
v 0.3 0 0.9
v 0.3 0.2 0.9
v 0.3 0.3 0.9
v 0.4 0 0.9
v 0.4 0.2 0.9
v -0.1 0.3 0.1
v -0.1 0.4 0.1
v 0.1 0.3 0.1
v 0.1 0.4 0.1
v -0.1 0.4 0
v -0.1 0.5 0
v 0.1 0.4 0
v 0.1 0.5 0
v -0.1 0.5 -0.1
v -0.1 0.6 -0.1
v 0.1 0.5 -0.1
v 0.1 0.6 -0.1
v -0.1 0.6 -0.2
v -0.1 0.7 -0.2
v 0.1 0.6 -0.2
v 0.1 0.7 -0.2
v -0.1 0.7 -0.3
v -0.1 0.8 -0.3
v 0.1 0.7 -0.3
v 0.1 0.8 -0.3
v -0.1 0.8 -0.4
v -0.1 0.9 -0.4
v 0.1 0.8 -0.4
v 0.1 0.9 -0.4
v -0.1 0.9 -0.5
v -0.1 1 -0.5
v 0.1 0.9 -0.5
v 0.1 1 -0.5
v -0.1 1 -0.6
v -0.1 1.1 -0.6
v 0.1 1 -0.6
v 0.1 1.1 -0.6
v -0.1 1.1 -0.7
v -0.1 1.2 -0.7
v 0.1 1.1 -0.7
v 0.1 1.2 -0.7
v -0.1 0.3 -0.1
v -0.1 0.4 -0.1
v 0.1 0.3 -0.1
v 0.1 0.4 -0.1
v -0.1 0.4 -0.2
v -0.1 0.5 -0.2
v 0.1 0.4 -0.2
v 0.1 0.5 -0.2
v -0.1 0.5 -0.3
v -0.1 0.6 -0.3
v 0.1 0.5 -0.3
v 0.1 0.6 -0.3
v -0.1 0.6 -0.4
v -0.1 0.7 -0.4
v 0.1 0.6 -0.4
v 0.1 0.7 -0.4
v -0.1 0.7 -0.5
v -0.1 0.8 -0.5
v 0.1 0.7 -0.5
v 0.1 0.8 -0.5
v -0.1 0.8 -0.6
v -0.1 0.9 -0.6
v 0.1 0.8 -0.6
v 0.1 0.9 -0.6
v -0.1 0.9 -0.7
v -0.1 1 -0.7
v 0.1 0.9 -0.7
v 0.1 1 -0.7
v -0.1 1 -0.9
v -0.1 1.2 -0.9
v 0.1 1 -0.9
v 0.1 1.2 -0.9
v -0.4 0 -1
v -0.4 0.2 -1
v -0.3 0 -1
v -0.3 0.2 -1
v -0.3 0.3 -1
v -0.2 0.2 -1
v 0.2 0.2 -1
v 0.3 0 -1
v 0.3 0.2 -1
v 0.3 0.3 -1
v 0.4 0 -1
v 0.4 0.2 -1
v -0.3 0 -1.1
v -0.3 0.2 -1.1
v -0.2 0.1 -1.1
v -0.2 0.2 -1.1
v 0.2 0.1 -1.1
v 0.2 0.2 -1.1
v 0.3 0 -1.1
v 0.3 0.2 -1.1
v -0.3 0 1
v 0.3 0 1
v -0.4 0 0.9
v -0.3 0 0.9
v 0.3 0 0.9
v 0.4 0 0.9
v -0.4 0 -1
v -0.3 0 -1
v 0.3 0 -1
v 0.4 0 -1
v -0.3 0 -1.1
v 0.3 0 -1.1
v -0.1 0.4 -0.1
v 0.1 0.4 -0.1
v -0.1 0.4 -0.2
v 0.1 0.4 -0.2
v -0.1 0.5 -0.2
v 0.1 0.5 -0.2
v -0.1 0.5 -0.3
v 0.1 0.5 -0.3
v -0.1 0.6 -0.3
v 0.1 0.6 -0.3
v -0.1 0.6 -0.4
v 0.1 0.6 -0.4
v -0.1 0.7 -0.4
v 0.1 0.7 -0.4
v -0.1 0.7 -0.5
v 0.1 0.7 -0.5
v -0.1 0.8 -0.5
v 0.1 0.8 -0.5
v -0.1 0.8 -0.6
v 0.1 0.8 -0.6
v -0.1 0.9 -0.6
v 0.1 0.9 -0.6
v -0.1 0.9 -0.7
v 0.1 0.9 -0.7
v -0.1 1 -0.7
v 0.1 1 -0.7
v -0.1 1 -0.9
v 0.1 1 -0.9
v -0.3 0.2 1
v -0.2 0.2 1
v 0.2 0.2 1
v 0.3 0.2 1
v -0.4 0.2 0.9
v -0.3 0.2 0.9
v -0.2 0.2 0.9
v 0.2 0.2 0.9
v 0.3 0.2 0.9
v 0.4 0.2 0.9
v -0.4 0.2 0.8
v -0.3 0.2 0.8
v 0.3 0.2 0.8
v 0.4 0.2 0.8
v -0.4 0.2 -0.9
v -0.3 0.2 -0.9
v 0.3 0.2 -0.9
v 0.4 0.2 -0.9
v -0.4 0.2 -1
v -0.3 0.2 -1
v -0.2 0.2 -1
v 0.2 0.2 -1
v 0.3 0.2 -1
v 0.4 0.2 -1
v -0.3 0.2 -1.1
v -0.2 0.2 -1.1
v 0.2 0.2 -1.1
v 0.3 0.2 -1.1
v -0.3 0.3 0.9
v 0.3 0.3 0.9
v -0.1 0.3 0.8
v 0.1 0.3 0.8
v -0.1 0.3 0.1
v 0.1 0.3 0.1
v -0.1 0.3 -0.1
v 0.1 0.3 -0.1
v -0.1 0.3 -0.9
v 0.1 0.3 -0.9
v -0.3 0.3 -1
v 0.3 0.3 -1
v -0.1 0.4 0.1
v 0.1 0.4 0.1
v -0.1 0.4 0
v 0.1 0.4 0
v -0.1 0.5 0
v 0.1 0.5 0
v -0.1 0.5 -0.1
v 0.1 0.5 -0.1
v -0.1 0.6 -0.1
v 0.1 0.6 -0.1
v -0.1 0.6 -0.2
v 0.1 0.6 -0.2
v -0.1 0.7 -0.2
v 0.1 0.7 -0.2
v -0.1 0.7 -0.3
v 0.1 0.7 -0.3
v -0.1 0.8 -0.3
v 0.1 0.8 -0.3
v -0.1 0.8 -0.4
v 0.1 0.8 -0.4
v -0.1 0.9 -0.4
v 0.1 0.9 -0.4
v -0.1 0.9 -0.5
v 0.1 0.9 -0.5
v -0.1 1 -0.5
v 0.1 1 -0.5
v -0.1 1 -0.6
v 0.1 1 -0.6
v -0.1 1.1 -0.6
v 0.1 1.1 -0.6
v -0.1 1.1 -0.7
v 0.1 1.1 -0.7
v -0.1 1.2 -0.7
v 0.1 1.2 -0.7
v -0.1 1.2 -0.9
v 0.1 1.2 -0.9

# faces
f 3/3/1 2/3/1 1/3/1
f 4/3/1 2/3/1 3/3/1
f 5/3/1 3/3/1 1/3/1
f 6/1/1 4/1/1 3/1/1
f 6/3/1 3/3/1 5/3/1
f 7/3/1 2/3/1 4/3/1
f 7/1/1 4/1/1 6/1/1
f 8/3/1 2/3/1 7/3/1
f 13/3/1 10/3/1 9/3/1
f 14/3/1 10/3/1 13/3/1
f 17/3/1 12/3/1 11/3/1
f 18/3/1 12/3/1 17/3/1
f 19/1/1 16/1/1 15/1/1
f 19/1/1 17/1/1 16/1/1
f 19/1/1 15/1/1 14/1/1
f 20/1/1 17/1/1 19/1/1
f 23/4/1 22/4/1 21/4/1
f 24/4/1 22/4/1 23/4/1
f 25/4/1 22/4/1 24/4/1
f 27/4/1 26/4/1 25/4/1
f 27/4/1 25/4/1 24/4/1
f 28/4/1 26/4/1 27/4/1
f 29/4/1 26/4/1 28/4/1
f 31/4/1 30/4/1 29/4/1
f 31/4/1 29/4/1 28/4/1
f 32/4/1 30/4/1 31/4/1
f 33/4/1 30/4/1 32/4/1
f 35/4/1 34/4/1 33/4/1
f 35/4/1 33/4/1 32/4/1
f 36/4/1 34/4/1 35/4/1
f 37/4/1 34/4/1 36/4/1
f 39/4/1 38/4/1 37/4/1
f 39/4/1 37/4/1 36/4/1
f 40/4/1 38/4/1 39/4/1
f 41/4/1 38/4/1 40/4/1
f 43/4/1 42/4/1 41/4/1
f 43/4/1 41/4/1 40/4/1
f 44/4/1 42/4/1 43/4/1
f 45/4/1 42/4/1 44/4/1
f 47/4/1 46/4/1 45/4/1
f 47/4/1 45/4/1 44/4/1
f 48/4/1 46/4/1 47/4/1
f 49/4/1 46/4/1 48/4/1
f 51/4/1 49/4/1 48/4/1
f 52/2/1 50/2/1 49/2/1
f 52/4/1 49/4/1 51/4/1
f 53/2/1 50/2/1 52/2/1
f 54/2/1 50/2/1 53/2/1
f 55/4/2 56/4/2 57/4/2
f 57/4/2 56/4/2 58/4/2
f 58/4/2 56/4/2 59/4/2
f 59/4/2 60/4/2 61/4/2
f 58/4/2 59/4/2 61/4/2
f 61/4/2 60/4/2 62/4/2
f 62/4/2 60/4/2 63/4/2
f 63/4/2 64/4/2 65/4/2
f 62/4/2 63/4/2 65/4/2
f 65/4/2 64/4/2 66/4/2
f 66/4/2 64/4/2 67/4/2
f 67/4/2 68/4/2 69/4/2
f 66/4/2 67/4/2 69/4/2
f 69/4/2 68/4/2 70/4/2
f 70/4/2 68/4/2 71/4/2
f 71/4/2 72/4/2 73/4/2
f 70/4/2 71/4/2 73/4/2
f 73/4/2 72/4/2 74/4/2
f 74/4/2 72/4/2 75/4/2
f 75/4/2 76/4/2 77/4/2
f 74/4/2 75/4/2 77/4/2
f 77/4/2 76/4/2 78/4/2
f 78/4/2 76/4/2 79/4/2
f 79/4/2 80/4/2 81/4/2
f 78/4/2 79/4/2 81/4/2
f 81/4/2 80/4/2 82/4/2
f 82/4/2 80/4/2 83/4/2
f 82/4/2 83/4/2 85/4/2
f 83/2/2 84/2/2 86/2/2
f 85/4/2 83/4/2 86/4/2
f 86/2/2 84/2/2 87/2/2
f 87/2/2 84/2/2 88/2/2
f 89/3/2 90/3/2 93/3/2
f 93/3/2 90/3/2 94/3/2
f 91/3/2 92/3/2 97/3/2
f 97/3/2 92/3/2 98/3/2
f 95/1/2 96/1/2 99/1/2
f 96/1/2 97/1/2 99/1/2
f 94/1/2 95/1/2 99/1/2
f 99/1/2 97/1/2 100/1/2
f 101/3/2 102/3/2 103/3/2
f 103/3/2 102/3/2 104/3/2
f 101/3/2 103/3/2 105/3/2
f 103/1/2 104/1/2 106/1/2
f 105/3/2 103/3/2 106/3/2
f 104/3/2 102/3/2 107/3/2
f 106/1/2 104/1/2 107/1/2
f 107/3/2 102/3/2 108/3/2
f 111/3/3 110/3/3 109/3/3
f 112/3/3 110/3/3 111/3/3
f 113/3/3 111/3/3 109/3/3
f 113/1/3 112/1/3 111/1/3
f 114/1/3 112/1/3 113/1/3
f 115/3/3 113/3/3 109/3/3
f 115/3/3 114/3/3 113/3/3
f 116/3/3 114/3/3 115/3/3
f 119/3/3 118/3/3 117/3/3
f 120/3/3 118/3/3 119/3/3
f 122/1/3 121/1/3 120/1/3
f 123/1/3 121/1/3 122/1/3
f 125/1/3 121/1/3 123/1/3
f 126/1/3 121/1/3 125/1/3
f 127/3/3 125/3/3 124/3/3
f 128/3/3 125/3/3 127/3/3
f 131/4/3 130/4/3 129/4/3
f 132/4/3 130/4/3 131/4/3
f 135/4/3 134/4/3 133/4/3
f 136/4/3 134/4/3 135/4/3
f 139/4/3 138/4/3 137/4/3
f 140/4/3 138/4/3 139/4/3
f 143/4/3 142/4/3 141/4/3
f 144/4/3 142/4/3 143/4/3
f 147/4/3 146/4/3 145/4/3
f 148/4/3 146/4/3 147/4/3
f 151/4/3 150/4/3 149/4/3
f 152/4/3 150/4/3 151/4/3
f 155/4/3 154/4/3 153/4/3
f 156/4/3 154/4/3 155/4/3
f 159/4/3 158/4/3 157/4/3
f 160/4/3 158/4/3 159/4/3
f 163/2/3 162/2/3 161/2/3
f 164/2/3 162/2/3 163/2/3
f 165/4/4 166/4/4 167/4/4
f 167/4/4 166/4/4 168/4/4
f 169/4/4 170/4/4 171/4/4
f 171/4/4 170/4/4 172/4/4
f 173/4/4 174/4/4 175/4/4
f 175/4/4 174/4/4 176/4/4
f 177/4/4 178/4/4 179/4/4
f 179/4/4 178/4/4 180/4/4
f 181/4/4 182/4/4 183/4/4
f 183/4/4 182/4/4 184/4/4
f 185/4/4 186/4/4 187/4/4
f 187/4/4 186/4/4 188/4/4
f 189/4/4 190/4/4 191/4/4
f 191/4/4 190/4/4 192/4/4
f 193/2/4 194/2/4 195/2/4
f 195/2/4 194/2/4 196/2/4
f 197/3/4 198/3/4 199/3/4
f 199/3/4 198/3/4 200/3/4
f 200/1/4 201/1/4 202/1/4
f 202/1/4 201/1/4 203/1/4
f 203/1/4 201/1/4 205/1/4
f 205/1/4 201/1/4 206/1/4
f 204/3/4 205/3/4 207/3/4
f 207/3/4 205/3/4 208/3/4
f 209/3/4 210/3/4 211/3/4
f 211/3/4 210/3/4 212/3/4
f 209/3/4 211/3/4 213/3/4
f 211/1/4 212/1/4 213/1/4
f 213/1/4 212/1/4 214/1/4
f 209/3/4 213/3/4 215/3/4
f 213/3/4 214/3/4 215/3/4
f 215/3/4 214/3/4 216/3/4
f 220/3/5 218/3/5 217/3/5
f 221/3/5 218/3/5 220/3/5
f 223/3/5 220/3/5 219/3/5
f 224/1/5 221/1/5 220/1/5
f 224/3/5 220/3/5 223/3/5
f 225/3/5 222/3/5 221/3/5
f 225/1/5 221/1/5 224/1/5
f 226/3/5 222/3/5 225/3/5
f 227/3/5 225/3/5 224/3/5
f 228/3/5 225/3/5 227/3/5
f 231/4/5 230/4/5 229/4/5
f 232/4/5 230/4/5 231/4/5
f 235/4/5 234/4/5 233/4/5
f 236/4/5 234/4/5 235/4/5
f 239/4/5 238/4/5 237/4/5
f 240/4/5 238/4/5 239/4/5
f 243/4/5 242/4/5 241/4/5
f 244/4/5 242/4/5 243/4/5
f 247/4/5 246/4/5 245/4/5
f 248/4/5 246/4/5 247/4/5
f 251/4/5 250/4/5 249/4/5
f 252/4/5 250/4/5 251/4/5
f 255/2/5 254/2/5 253/2/5
f 256/2/5 254/2/5 255/2/5
f 257/3/6 258/3/6 262/3/6
f 258/1/6 259/1/6 263/1/6
f 262/3/6 258/3/6 263/3/6
f 259/3/6 260/3/6 264/3/6
f 263/1/6 259/1/6 264/1/6
f 264/3/6 260/3/6 265/3/6
f 261/3/6 262/3/6 267/3/6
f 267/3/6 262/3/6 268/3/6
f 265/3/6 266/3/6 269/3/6
f 269/3/6 266/3/6 270/3/6
f 267/1/6 268/1/6 271/1/6
f 271/1/6 268/1/6 272/1/6
f 269/1/6 270/1/6 273/1/6
f 273/1/6 270/1/6 274/1/6
f 271/3/6 272/3/6 275/3/6
f 275/3/6 272/3/6 276/3/6
f 273/3/6 274/3/6 279/3/6
f 279/3/6 274/3/6 280/3/6
f 276/3/6 277/3/6 281/3/6
f 277/1/6 278/1/6 282/1/6
f 281/3/6 277/3/6 282/3/6
f 278/3/6 279/3/6 283/3/6
f 282/1/6 278/1/6 283/1/6
f 283/3/6 279/3/6 284/3/6
f 285/1/6 286/1/6 287/1/6
f 287/1/6 286/1/6 288/1/6
f 285/1/6 287/1/6 289/1/6
f 287/5/6 288/5/6 289/5/6
f 288/1/6 286/1/6 290/1/6
f 289/5/6 288/5/6 290/5/6
f 285/1/6 289/1/6 291/1/6
f 290/1/6 286/1/6 292/1/6
f 285/1/6 291/1/6 293/1/6
f 291/5/6 292/5/6 293/5/6
f 292/1/6 286/1/6 294/1/6
f 293/5/6 292/5/6 294/5/6
f 285/1/6 293/1/6 295/1/6
f 293/1/6 294/1/6 295/1/6
f 294/1/6 286/1/6 296/1/6
f 295/1/6 294/1/6 296/1/6
f 297/4/6 298/4/6 299/4/6
f 299/4/6 298/4/6 300/4/6
f 301/4/6 302/4/6 303/4/6
f 303/4/6 302/4/6 304/4/6
f 305/4/6 306/4/6 307/4/6
f 307/4/6 306/4/6 308/4/6
f 309/4/6 310/4/6 311/4/6
f 311/4/6 310/4/6 312/4/6
f 313/4/6 314/4/6 315/4/6
f 315/4/6 314/4/6 316/4/6
f 317/4/6 318/4/6 319/4/6
f 319/4/6 318/4/6 320/4/6
f 321/4/6 322/4/6 323/4/6
f 323/4/6 322/4/6 324/4/6
f 325/4/6 326/4/6 327/4/6
f 327/4/6 326/4/6 328/4/6
f 329/2/6 330/2/6 331/2/6
f 331/2/6 330/2/6 332/2/6
