# MagicaVoxel @ Ephtracy

# group
o 

# material
mtllib Sign.mtl
usemtl palette

# normals
vn -1 0 0
vn 1 0 0
vn 0 0 1
vn 0 0 -1
vn 0 -1 0
vn 0 1 0

# texcoords
vt 0.248047 0.5
vt 0.373047 0.5
vt 0.994141 0.5

# verts
v -0.7 0.5 2.23517e-008
v -0.7 0.5 -0.1
v -0.7 1.3 2.23517e-008
v -0.7 1.3 -0.1
v -0.6 0.4 2.23517e-008
v -0.6 0.4 -0.1
v -0.6 0.5 2.23517e-008
v -0.6 0.5 -0.1
v -0.6 1.3 2.23517e-008
v -0.6 1.3 -0.1
v -0.6 1.4 2.23517e-008
v -0.6 1.4 -0.1
v -0.5 0.3 2.23517e-008
v -0.5 0.3 -0.1
v -0.5 0.4 2.23517e-008
v -0.5 0.4 -0.1
v -0.5 1.4 2.23517e-008
v -0.5 1.4 -0.1
v -0.5 1.6 2.23517e-008
v -0.5 1.6 -0.1
v -0.4 1.6 2.23517e-008
v -0.4 1.6 -0.1
v -0.4 1.7 2.23517e-008
v -0.4 1.7 -0.1
v -0.2 1.6 2.23517e-008
v -0.2 1.6 -0.1
v -0.2 1.7 2.23517e-008
v -0.2 1.7 -0.1
v -0.1 0 2.23517e-008
v -0.1 0 -0.1
v -0.1 0.3 2.23517e-008
v -0.1 0.3 -0.1
v -0.1 0.4 -0.1
v -0.1 0.4 -0.2
v -0.1 0.5 -0.1
v -0.1 1 -0.1
v -0.1 1 -0.2
v -0.3 1.6 2.23517e-008
v -0.3 1.6 -0.1
v -0.3 1.7 2.23517e-008
v -0.3 1.7 -0.1
v -0.1 1.6 2.23517e-008
v -0.1 1.6 -0.1
v -0.1 1.7 2.23517e-008
v -0.1 1.7 -0.1
v 0 1.5 2.23517e-008
v 0 1.5 -0.1
v 0 1.6 2.23517e-008
v 0 1.6 -0.1
v 0.1 0 2.23517e-008
v 0.1 0 -0.1
v 0.1 0.3 2.23517e-008
v 0.1 0.3 -0.1
v 0.1 0.4 -0.1
v 0.1 0.4 -0.2
v 0.1 0.5 -0.1
v 0.1 1 -0.1
v 0.1 1 -0.2
v 0.5 0.3 2.23517e-008
v 0.5 0.3 -0.1
v 0.5 0.4 2.23517e-008
v 0.5 0.4 -0.1
v 0.5 1.4 2.23517e-008
v 0.5 1.4 -0.1
v 0.5 1.5 2.23517e-008
v 0.5 1.5 -0.1
v 0.6 0.4 2.23517e-008
v 0.6 0.4 -0.1
v 0.6 0.5 2.23517e-008
v 0.6 0.5 -0.1
v 0.6 1.3 2.23517e-008
v 0.6 1.3 -0.1
v 0.6 1.4 2.23517e-008
v 0.6 1.4 -0.1
v 0.7 0.5 2.23517e-008
v 0.7 0.5 -0.1
v 0.7 1.3 2.23517e-008
v 0.7 1.3 -0.1
v -0.7 0.5 2.23517e-008
v -0.7 1.3 2.23517e-008
v -0.6 0.4 2.23517e-008
v -0.6 0.5 2.23517e-008
v -0.6 1.3 2.23517e-008
v -0.6 1.4 2.23517e-008
v -0.5 0.3 2.23517e-008
v -0.5 0.4 2.23517e-008
v -0.5 0.5 2.23517e-008
v -0.5 1.3 2.23517e-008
v -0.5 1.4 2.23517e-008
v -0.5 1.6 2.23517e-008
v -0.4 1.4 2.23517e-008
v -0.4 1.6 2.23517e-008
v -0.4 1.7 2.23517e-008
v -0.3 1.5 2.23517e-008
v -0.3 1.6 2.23517e-008
v -0.3 1.7 2.23517e-008
v -0.2 1.5 2.23517e-008
v -0.2 1.6 2.23517e-008
v -0.2 1.7 2.23517e-008
v -0.1 0 2.23517e-008
v -0.1 0.3 2.23517e-008
v -0.1 1.4 2.23517e-008
v -0.1 1.6 2.23517e-008
v -0.1 1.7 2.23517e-008
v 0 1.5 2.23517e-008
v 0 1.6 2.23517e-008
v 0.1 0 2.23517e-008
v 0.1 0.3 2.23517e-008
v 0.5 0.3 2.23517e-008
v 0.5 0.4 2.23517e-008
v 0.5 0.5 2.23517e-008
v 0.5 1.3 2.23517e-008
v 0.5 1.4 2.23517e-008
v 0.5 1.5 2.23517e-008
v 0.6 0.4 2.23517e-008
v 0.6 0.5 2.23517e-008
v 0.6 1.3 2.23517e-008
v 0.6 1.4 2.23517e-008
v 0.7 0.5 2.23517e-008
v 0.7 1.3 2.23517e-008
v -0.7 0.5 -0.1
v -0.7 1.3 -0.1
v -0.6 0.4 -0.1
v -0.6 0.5 -0.1
v -0.6 1.3 -0.1
v -0.6 1.4 -0.1
v -0.5 0.3 -0.1
v -0.5 0.4 -0.1
v -0.5 0.5 -0.1
v -0.5 1.3 -0.1
v -0.5 1.4 -0.1
v -0.5 1.6 -0.1
v -0.4 1.4 -0.1
v -0.4 1.6 -0.1
v -0.4 1.7 -0.1
v -0.3 1.5 -0.1
v -0.3 1.6 -0.1
v -0.3 1.7 -0.1
v -0.2 1.5 -0.1
v -0.2 1.6 -0.1
v -0.2 1.7 -0.1
v -0.1 0 -0.1
v -0.1 0.3 -0.1
v -0.1 0.4 -0.1
v -0.1 0.5 -0.1
v -0.1 1 -0.1
v -0.1 1.4 -0.1
v -0.1 1.6 -0.1
v -0.1 1.7 -0.1
v 0 1.5 -0.1
v 0 1.6 -0.1
v 0.1 0 -0.1
v 0.1 0.3 -0.1
v 0.1 0.4 -0.1
v 0.1 0.5 -0.1
v 0.1 1 -0.1
v 0.5 0.3 -0.1
v 0.5 0.4 -0.1
v 0.5 0.5 -0.1
v 0.5 1.3 -0.1
v 0.5 1.4 -0.1
v 0.5 1.5 -0.1
v 0.6 0.4 -0.1
v 0.6 0.5 -0.1
v 0.6 1.3 -0.1
v 0.6 1.4 -0.1
v 0.7 0.5 -0.1
v 0.7 1.3 -0.1
v -0.1 0.4 -0.2
v -0.1 1 -0.2
v 0.1 0.4 -0.2
v 0.1 1 -0.2
v -0.1 0 2.23517e-008
v 0.1 0 2.23517e-008
v -0.1 0 -0.1
v 0.1 0 -0.1
v -0.5 0.3 2.23517e-008
v -0.1 0.3 2.23517e-008
v 0.1 0.3 2.23517e-008
v 0.5 0.3 2.23517e-008
v -0.5 0.3 -0.1
v -0.1 0.3 -0.1
v 0.1 0.3 -0.1
v 0.5 0.3 -0.1
v -0.6 0.4 2.23517e-008
v -0.5 0.4 2.23517e-008
v 0.5 0.4 2.23517e-008
v 0.6 0.4 2.23517e-008
v -0.6 0.4 -0.1
v -0.5 0.4 -0.1
v -0.1 0.4 -0.1
v 0.1 0.4 -0.1
v 0.5 0.4 -0.1
v 0.6 0.4 -0.1
v -0.1 0.4 -0.2
v 0.1 0.4 -0.2
v -0.7 0.5 2.23517e-008
v -0.6 0.5 2.23517e-008
v 0.6 0.5 2.23517e-008
v 0.7 0.5 2.23517e-008
v -0.7 0.5 -0.1
v -0.6 0.5 -0.1
v 0.6 0.5 -0.1
v 0.7 0.5 -0.1
v -0.1 1 -0.1
v 0.1 1 -0.1
v -0.1 1 -0.2
v 0.1 1 -0.2
v -0.7 1.3 2.23517e-008
v -0.6 1.3 2.23517e-008
v 0.6 1.3 2.23517e-008
v 0.7 1.3 2.23517e-008
v -0.7 1.3 -0.1
v -0.6 1.3 -0.1
v 0.6 1.3 -0.1
v 0.7 1.3 -0.1
v -0.6 1.4 2.23517e-008
v -0.5 1.4 2.23517e-008
v 0.5 1.4 2.23517e-008
v 0.6 1.4 2.23517e-008
v -0.6 1.4 -0.1
v -0.5 1.4 -0.1
v 0.5 1.4 -0.1
v 0.6 1.4 -0.1
v 0 1.5 2.23517e-008
v 0.5 1.5 2.23517e-008
v 0 1.5 -0.1
v 0.5 1.5 -0.1
v -0.5 1.6 2.23517e-008
v -0.4 1.6 2.23517e-008
v -0.3 1.6 2.23517e-008
v -0.2 1.6 2.23517e-008
v -0.1 1.6 2.23517e-008
v 0 1.6 2.23517e-008
v -0.5 1.6 -0.1
v -0.4 1.6 -0.1
v -0.3 1.6 -0.1
v -0.2 1.6 -0.1
v -0.1 1.6 -0.1
v 0 1.6 -0.1
v -0.4 1.7 2.23517e-008
v -0.3 1.7 2.23517e-008
v -0.2 1.7 2.23517e-008
v -0.1 1.7 2.23517e-008
v -0.4 1.7 -0.1
v -0.3 1.7 -0.1
v -0.2 1.7 -0.1
v -0.1 1.7 -0.1

# faces
f 3/3/1 2/3/1 1/3/1
f 4/3/1 2/3/1 3/3/1
f 7/3/1 6/3/1 5/3/1
f 8/3/1 6/3/1 7/3/1
f 11/3/1 10/3/1 9/3/1
f 12/3/1 10/3/1 11/3/1
f 15/3/1 14/3/1 13/3/1
f 16/3/1 14/3/1 15/3/1
f 19/3/1 18/3/1 17/3/1
f 20/3/1 18/3/1 19/3/1
f 23/3/1 22/3/1 21/3/1
f 24/3/1 22/3/1 23/3/1
f 27/3/1 26/3/1 25/3/1
f 28/3/1 26/3/1 27/3/1
f 31/2/1 30/2/1 29/2/1
f 32/2/1 30/2/1 31/2/1
f 35/2/1 34/2/1 33/2/1
f 36/2/1 34/2/1 35/2/1
f 37/2/1 34/2/1 36/2/1
f 38/3/2 39/3/2 40/3/2
f 40/3/2 39/3/2 41/3/2
f 42/3/2 43/3/2 44/3/2
f 44/3/2 43/3/2 45/3/2
f 46/3/2 47/3/2 48/3/2
f 48/3/2 47/3/2 49/3/2
f 50/2/2 51/2/2 52/2/2
f 52/2/2 51/2/2 53/2/2
f 54/2/2 55/2/2 56/2/2
f 56/2/2 55/2/2 57/2/2
f 57/2/2 55/2/2 58/2/2
f 59/3/2 60/3/2 61/3/2
f 61/3/2 60/3/2 62/3/2
f 63/3/2 64/3/2 65/3/2
f 65/3/2 64/3/2 66/3/2
f 67/3/2 68/3/2 69/3/2
f 69/3/2 68/3/2 70/3/2
f 71/3/2 72/3/2 73/3/2
f 73/3/2 72/3/2 74/3/2
f 75/3/2 76/3/2 77/3/2
f 77/3/2 76/3/2 78/3/2
f 82/3/3 80/3/3 79/3/3
f 83/3/3 80/3/3 82/3/3
f 86/3/3 82/3/3 81/3/3
f 87/1/3 83/1/3 82/1/3
f 87/3/3 82/3/3 86/3/3
f 88/3/3 84/3/3 83/3/3
f 88/1/3 83/1/3 87/1/3
f 89/3/3 84/3/3 88/3/3
f 91/1/3 89/1/3 88/1/3
f 91/3/3 90/3/3 89/3/3
f 92/3/3 90/3/3 91/3/3
f 94/1/3 92/1/3 91/1/3
f 95/3/3 93/3/3 92/3/3
f 95/1/3 92/1/3 94/1/3
f 96/3/3 93/3/3 95/3/3
f 97/1/3 94/1/3 91/1/3
f 97/3/3 95/3/3 94/3/3
f 98/3/3 95/3/3 97/3/3
f 101/3/3 86/3/3 85/3/3
f 102/1/3 91/1/3 88/1/3
f 102/1/3 97/1/3 91/1/3
f 102/1/3 98/1/3 97/1/3
f 103/3/3 99/3/3 98/3/3
f 103/1/3 98/1/3 102/1/3
f 104/3/3 99/3/3 103/3/3
f 105/3/3 103/3/3 102/3/3
f 106/3/3 103/3/3 105/3/3
f 107/2/3 101/2/3 100/2/3
f 108/3/3 86/3/3 101/3/3
f 108/2/3 101/2/3 107/2/3
f 109/3/3 86/3/3 108/3/3
f 110/1/3 87/1/3 86/1/3
f 110/3/3 86/3/3 109/3/3
f 111/2/3 88/2/3 87/2/3
f 111/1/3 87/1/3 110/1/3
f 112/1/3 102/1/3 88/1/3
f 112/2/3 88/2/3 111/2/3
f 113/3/3 105/3/3 102/3/3
f 113/1/3 102/1/3 112/1/3
f 114/3/3 105/3/3 113/3/3
f 115/3/3 111/3/3 110/3/3
f 116/1/3 112/1/3 111/1/3
f 116/3/3 111/3/3 115/3/3
f 117/3/3 113/3/3 112/3/3
f 117/1/3 112/1/3 116/1/3
f 118/3/3 113/3/3 117/3/3
f 119/3/3 117/3/3 116/3/3
f 120/3/3 117/3/3 119/3/3
f 121/3/4 122/3/4 124/3/4
f 124/3/4 122/3/4 125/3/4
f 123/3/4 124/3/4 128/3/4
f 124/1/4 125/1/4 129/1/4
f 128/3/4 124/3/4 129/3/4
f 125/3/4 126/3/4 130/3/4
f 129/1/4 125/1/4 130/1/4
f 130/3/4 126/3/4 131/3/4
f 130/1/4 131/1/4 133/1/4
f 131/3/4 132/3/4 133/3/4
f 133/3/4 132/3/4 134/3/4
f 133/1/4 134/1/4 136/1/4
f 134/3/4 135/3/4 137/3/4
f 136/1/4 134/1/4 137/1/4
f 137/3/4 135/3/4 138/3/4
f 133/1/4 136/1/4 139/1/4
f 136/3/4 137/3/4 139/3/4
f 139/3/4 137/3/4 140/3/4
f 127/3/4 128/3/4 143/3/4
f 128/1/4 129/1/4 144/1/4
f 143/3/4 128/3/4 144/3/4
f 129/2/4 130/2/4 145/2/4
f 144/1/4 129/1/4 145/1/4
f 145/2/4 130/2/4 146/2/4
f 130/1/4 133/1/4 147/1/4
f 133/1/4 139/1/4 147/1/4
f 139/1/4 140/1/4 147/1/4
f 140/3/4 141/3/4 148/3/4
f 147/1/4 140/1/4 148/1/4
f 148/3/4 141/3/4 149/3/4
f 147/3/4 148/3/4 150/3/4
f 150/3/4 148/3/4 151/3/4
f 142/2/4 143/2/4 152/2/4
f 143/3/4 144/3/4 153/3/4
f 152/2/4 143/2/4 153/2/4
f 153/3/4 144/3/4 154/3/4
f 146/2/4 130/2/4 156/2/4
f 153/3/4 154/3/4 157/3/4
f 154/1/4 155/1/4 158/1/4
f 157/3/4 154/3/4 158/3/4
f 155/2/4 156/2/4 159/2/4
f 158/1/4 155/1/4 159/1/4
f 130/1/4 147/1/4 160/1/4
f 159/2/4 156/2/4 160/2/4
f 156/2/4 130/2/4 160/2/4
f 147/3/4 150/3/4 161/3/4
f 160/1/4 147/1/4 161/1/4
f 161/3/4 150/3/4 162/3/4
f 158/3/4 159/3/4 163/3/4
f 159/1/4 160/1/4 164/1/4
f 163/3/4 159/3/4 164/3/4
f 160/3/4 161/3/4 165/3/4
f 164/1/4 160/1/4 165/1/4
f 165/3/4 161/3/4 166/3/4
f 164/3/4 165/3/4 167/3/4
f 167/3/4 165/3/4 168/3/4
f 169/2/4 170/2/4 171/2/4
f 171/2/4 170/2/4 172/2/4
f 175/2/5 174/2/5 173/2/5
f 176/2/5 174/2/5 175/2/5
f 181/3/5 178/3/5 177/3/5
f 182/3/5 178/3/5 181/3/5
f 183/3/5 180/3/5 179/3/5
f 184/3/5 180/3/5 183/3/5
f 189/3/5 186/3/5 185/3/5
f 190/3/5 186/3/5 189/3/5
f 193/3/5 188/3/5 187/3/5
f 194/3/5 188/3/5 193/3/5
f 195/2/5 192/2/5 191/2/5
f 196/2/5 192/2/5 195/2/5
f 201/3/5 198/3/5 197/3/5
f 202/3/5 198/3/5 201/3/5
f 203/3/5 200/3/5 199/3/5
f 204/3/5 200/3/5 203/3/5
f 205/2/6 206/2/6 207/2/6
f 207/2/6 206/2/6 208/2/6
f 209/3/6 210/3/6 213/3/6
f 213/3/6 210/3/6 214/3/6
f 211/3/6 212/3/6 215/3/6
f 215/3/6 212/3/6 216/3/6
f 217/3/6 218/3/6 221/3/6
f 221/3/6 218/3/6 222/3/6
f 219/3/6 220/3/6 223/3/6
f 223/3/6 220/3/6 224/3/6
f 225/3/6 226/3/6 227/3/6
f 227/3/6 226/3/6 228/3/6
f 229/3/6 230/3/6 235/3/6
f 235/3/6 230/3/6 236/3/6
f 231/3/6 232/3/6 237/3/6
f 237/3/6 232/3/6 238/3/6
f 233/3/6 234/3/6 239/3/6
f 239/3/6 234/3/6 240/3/6
f 241/3/6 242/3/6 245/3/6
f 245/3/6 242/3/6 246/3/6
f 243/3/6 244/3/6 247/3/6
f 247/3/6 244/3/6 248/3/6
