# MagicaVoxel @ Ephtracy

# group
o 

# material
mtllib weapon.mtl
usemtl palette

# normals
vn -1 0 0
vn 1 0 0
vn 0 0 1
vn 0 0 -1
vn 0 -1 0
vn 0 1 0

# texcoords
vt 0.537109 0.5
vt 0.982422 0.5

# verts
v -0.3 1.6 -0.4
v -0.3 1.6 -0.5
v -0.3 1.9 -0.4
v -0.3 1.9 -0.5
v -0.2 1.5 -0.4
v -0.2 1.5 -0.5
v -0.2 1.6 0
v -0.2 1.6 -0.4
v -0.2 1.6 -0.5
v -0.2 1.6 -1.3
v -0.2 1.7 0.4
v -0.2 1.7 0
v -0.2 1.8 0.7
v -0.2 1.8 0.4
v -0.2 1.9 0.7
v -0.2 1.9 -0.4
v -0.2 1.9 -0.5
v -0.2 1.9 -1.3
v -0.2 2 -0.4
v -0.2 2 -0.5
v -0.1 1.4 -0.4
v -0.1 1.4 -0.5
v -0.1 1.5 0
v -0.1 1.5 -0.4
v -0.1 1.5 -0.5
v -0.1 1.5 -1.3
v -0.1 1.6 0.4
v -0.1 1.6 0
v -0.1 1.6 -0.4
v -0.1 1.6 -0.5
v -0.1 1.6 -1.3
v -0.1 1.6 -1.4
v -0.1 1.7 0.7
v -0.1 1.7 0.4
v -0.1 1.7 0
v -0.1 1.8 0.9
v -0.1 1.8 0.7
v -0.1 1.8 0.4
v -0.1 1.9 0.9
v -0.1 1.9 0.7
v -0.1 1.9 -0.4
v -0.1 1.9 -0.5
v -0.1 1.9 -1.3
v -0.1 1.9 -1.4
v -0.1 2 0.7
v -0.1 2 -0.4
v -0.1 2 -0.5
v -0.1 2 -1.3
v -0.1 2.1 -0.4
v -0.1 2.1 -0.5
v 2.98023e-008 1.3 -0.4
v 2.98023e-008 1.3 -0.5
v 2.98023e-008 1.4 0
v 2.98023e-008 1.4 -0.4
v 2.98023e-008 1.4 -0.5
v 2.98023e-008 1.4 -1.3
v 2.98023e-008 1.5 0.4
v 2.98023e-008 1.5 0
v 2.98023e-008 1.5 -0.4
v 2.98023e-008 1.5 -0.5
v 2.98023e-008 1.5 -1.3
v 2.98023e-008 1.5 -1.4
v 2.98023e-008 1.6 0.7
v 2.98023e-008 1.6 0.4
v 2.98023e-008 1.6 0
v 2.98023e-008 1.6 -1.3
v 2.98023e-008 1.6 -1.4
v 2.98023e-008 1.7 0.9
v 2.98023e-008 1.7 0.7
v 2.98023e-008 1.7 0.4
v 2.98023e-008 1.8 1.1
v 2.98023e-008 1.8 0.9
v 2.98023e-008 1.8 0.7
v 2.98023e-008 1.9 1.1
v 2.98023e-008 1.9 0.9
v 2.98023e-008 1.9 0.7
v 2.98023e-008 2 0.9
v 2.98023e-008 2 0.7
v 0.1 1.3 -0.4
v 0.1 1.3 -0.5
v 0.1 1.4 0
v 0.1 1.4 -0.4
v 0.1 1.4 -0.5
v 0.1 1.4 -1.3
v 0.1 1.5 0.4
v 0.1 1.5 0
v 0.1 1.5 -0.4
v 0.1 1.5 -0.5
v 0.1 1.5 -1.3
v 0.1 1.5 -1.4
v 0.1 1.6 0.7
v 0.1 1.6 0.4
v 0.1 1.6 0
v 0.1 1.6 -1.3
v 0.1 1.6 -1.4
v 0.1 1.7 0.9
v 0.1 1.7 0.7
v 0.1 1.7 0.4
v 0.1 1.8 1.1
v 0.1 1.8 0.9
v 0.1 1.8 0.7
v 0.1 1.9 1.1
v 0.1 1.9 0.9
v 0.1 1.9 0.7
v 0.1 2 0.9
v 0.1 2 0.7
v 0.2 1.4 -0.4
v 0.2 1.4 -0.5
v 0.2 1.5 0
v 0.2 1.5 -0.4
v 0.2 1.5 -0.5
v 0.2 1.5 -1.3
v 0.2 1.6 0.4
v 0.2 1.6 0
v 0.2 1.6 -0.4
v 0.2 1.6 -0.5
v 0.2 1.6 -1.3
v 0.2 1.6 -1.4
v 0.2 1.7 0.7
v 0.2 1.7 0.4
v 0.2 1.7 0
v 0.2 1.8 0.9
v 0.2 1.8 0.7
v 0.2 1.8 0.4
v 0.2 1.9 0.9
v 0.2 1.9 0.7
v 0.2 1.9 -0.4
v 0.2 1.9 -0.5
v 0.2 1.9 -1.3
v 0.2 1.9 -1.4
v 0.2 2 0.7
v 0.2 2 -0.4
v 0.2 2 -0.5
v 0.2 2 -1.3
v 0.2 2.1 -0.4
v 0.2 2.1 -0.5
v 0.3 1.5 -0.4
v 0.3 1.5 -0.5
v 0.3 1.6 0
v 0.3 1.6 -0.4
v 0.3 1.6 -0.5
v 0.3 1.6 -1.3
v 0.3 1.7 0.4
v 0.3 1.7 0
v 0.3 1.8 0.7
v 0.3 1.8 0.4
v 0.3 1.9 0.7
v 0.3 1.9 -0.4
v 0.3 1.9 -0.5
v 0.3 1.9 -1.3
v 0.3 2 -0.4
v 0.3 2 -0.5
v 0.4 1.6 -0.4
v 0.4 1.6 -0.5
v 0.4 1.9 -0.4
v 0.4 1.9 -0.5
v 2.98023e-008 1.8 1.1
v 2.98023e-008 1.9 1.1
v 0.1 1.8 1.1
v 0.1 1.9 1.1
v -0.1 1.8 0.9
v -0.1 1.9 0.9
v 2.98023e-008 1.7 0.9
v 2.98023e-008 1.8 0.9
v 2.98023e-008 1.9 0.9
v 2.98023e-008 2 0.9
v 0.1 1.7 0.9
v 0.1 1.8 0.9
v 0.1 1.9 0.9
v 0.1 2 0.9
v 0.2 1.8 0.9
v 0.2 1.9 0.9
v -0.2 1.8 0.7
v -0.2 1.9 0.7
v -0.1 1.7 0.7
v -0.1 1.8 0.7
v -0.1 1.9 0.7
v -0.1 2 0.7
v 2.98023e-008 1.6 0.7
v 2.98023e-008 1.7 0.7
v 2.98023e-008 1.8 0.7
v 2.98023e-008 1.9 0.7
v 2.98023e-008 2 0.7
v 0.1 1.6 0.7
v 0.1 1.7 0.7
v 0.1 1.8 0.7
v 0.1 1.9 0.7
v 0.1 2 0.7
v 0.2 1.7 0.7
v 0.2 1.8 0.7
v 0.2 1.9 0.7
v 0.2 2 0.7
v 0.3 1.8 0.7
v 0.3 1.9 0.7
v -0.2 1.7 0.4
v -0.2 1.8 0.4
v -0.1 1.6 0.4
v -0.1 1.7 0.4
v -0.1 1.8 0.4
v 2.98023e-008 1.5 0.4
v 2.98023e-008 1.6 0.4
v 2.98023e-008 1.7 0.4
v 0.1 1.5 0.4
v 0.1 1.6 0.4
v 0.1 1.7 0.4
v 0.2 1.6 0.4
v 0.2 1.7 0.4
v 0.2 1.8 0.4
v 0.3 1.7 0.4
v 0.3 1.8 0.4
v -0.2 1.6 0
v -0.2 1.7 0
v -0.1 1.5 0
v -0.1 1.6 0
v -0.1 1.7 0
v 2.98023e-008 1.4 0
v 2.98023e-008 1.5 0
v 2.98023e-008 1.6 0
v 0.1 1.4 0
v 0.1 1.5 0
v 0.1 1.6 0
v 0.2 1.5 0
v 0.2 1.6 0
v 0.2 1.7 0
v 0.3 1.6 0
v 0.3 1.7 0
v -0.3 1.6 -0.4
v -0.3 1.9 -0.4
v -0.2 1.5 -0.4
v -0.2 1.6 -0.4
v -0.2 1.9 -0.4
v -0.2 2 -0.4
v -0.1 1.4 -0.4
v -0.1 1.5 -0.4
v -0.1 1.6 -0.4
v -0.1 1.9 -0.4
v -0.1 2 -0.4
v -0.1 2.1 -0.4
v 2.98023e-008 1.3 -0.4
v 2.98023e-008 1.4 -0.4
v 2.98023e-008 1.5 -0.4
v 0.1 1.3 -0.4
v 0.1 1.4 -0.4
v 0.1 1.5 -0.4
v 0.2 1.4 -0.4
v 0.2 1.5 -0.4
v 0.2 1.6 -0.4
v 0.2 1.9 -0.4
v 0.2 2 -0.4
v 0.2 2.1 -0.4
v 0.3 1.5 -0.4
v 0.3 1.6 -0.4
v 0.3 1.9 -0.4
v 0.3 2 -0.4
v 0.4 1.6 -0.4
v 0.4 1.9 -0.4
v -0.3 1.6 -0.5
v -0.3 1.9 -0.5
v -0.2 1.5 -0.5
v -0.2 1.6 -0.5
v -0.2 1.9 -0.5
v -0.2 2 -0.5
v -0.1 1.4 -0.5
v -0.1 1.5 -0.5
v -0.1 1.6 -0.5
v -0.1 1.9 -0.5
v -0.1 2 -0.5
v -0.1 2.1 -0.5
v 2.98023e-008 1.3 -0.5
v 2.98023e-008 1.4 -0.5
v 2.98023e-008 1.5 -0.5
v 0.1 1.3 -0.5
v 0.1 1.4 -0.5
v 0.1 1.5 -0.5
v 0.2 1.4 -0.5
v 0.2 1.5 -0.5
v 0.2 1.6 -0.5
v 0.2 1.9 -0.5
v 0.2 2 -0.5
v 0.2 2.1 -0.5
v 0.3 1.5 -0.5
v 0.3 1.6 -0.5
v 0.3 1.9 -0.5
v 0.3 2 -0.5
v 0.4 1.6 -0.5
v 0.4 1.9 -0.5
v -0.2 1.6 -1.3
v -0.2 1.9 -1.3
v -0.1 1.5 -1.3
v -0.1 1.6 -1.3
v -0.1 1.9 -1.3
v -0.1 2 -1.3
v 2.98023e-008 1.4 -1.3
v 2.98023e-008 1.5 -1.3
v 2.98023e-008 1.6 -1.3
v 0.1 1.4 -1.3
v 0.1 1.5 -1.3
v 0.1 1.6 -1.3
v 0.2 1.5 -1.3
v 0.2 1.6 -1.3
v 0.2 1.9 -1.3
v 0.2 2 -1.3
v 0.3 1.6 -1.3
v 0.3 1.9 -1.3
v -0.1 1.6 -1.4
v -0.1 1.9 -1.4
v 2.98023e-008 1.5 -1.4
v 2.98023e-008 1.6 -1.4
v 0.1 1.5 -1.4
v 0.1 1.6 -1.4
v 0.2 1.6 -1.4
v 0.2 1.9 -1.4
v 2.98023e-008 1.3 -0.4
v 0.1 1.3 -0.4
v 2.98023e-008 1.3 -0.5
v 0.1 1.3 -0.5
v 2.98023e-008 1.4 0
v 0.1 1.4 0
v -0.1 1.4 -0.4
v 2.98023e-008 1.4 -0.4
v 0.1 1.4 -0.4
v 0.2 1.4 -0.4
v -0.1 1.4 -0.5
v 2.98023e-008 1.4 -0.5
v 0.1 1.4 -0.5
v 0.2 1.4 -0.5
v 2.98023e-008 1.4 -1.3
v 0.1 1.4 -1.3
v 2.98023e-008 1.5 0.4
v 0.1 1.5 0.4
v -0.1 1.5 0
v 2.98023e-008 1.5 0
v 0.1 1.5 0
v 0.2 1.5 0
v -0.2 1.5 -0.4
v -0.1 1.5 -0.4
v 2.98023e-008 1.5 -0.4
v 0.1 1.5 -0.4
v 0.2 1.5 -0.4
v 0.3 1.5 -0.4
v -0.2 1.5 -0.5
v -0.1 1.5 -0.5
v 2.98023e-008 1.5 -0.5
v 0.1 1.5 -0.5
v 0.2 1.5 -0.5
v 0.3 1.5 -0.5
v -0.1 1.5 -1.3
v 2.98023e-008 1.5 -1.3
v 0.1 1.5 -1.3
v 0.2 1.5 -1.3
v 2.98023e-008 1.5 -1.4
v 0.1 1.5 -1.4
v 2.98023e-008 1.6 0.7
v 0.1 1.6 0.7
v -0.1 1.6 0.4
v 2.98023e-008 1.6 0.4
v 0.1 1.6 0.4
v 0.2 1.6 0.4
v -0.2 1.6 0
v -0.1 1.6 0
v 2.98023e-008 1.6 0
v 0.1 1.6 0
v 0.2 1.6 0
v 0.3 1.6 0
v -0.3 1.6 -0.4
v -0.2 1.6 -0.4
v -0.1 1.6 -0.4
v 0.2 1.6 -0.4
v 0.3 1.6 -0.4
v 0.4 1.6 -0.4
v -0.3 1.6 -0.5
v -0.2 1.6 -0.5
v -0.1 1.6 -0.5
v 0.2 1.6 -0.5
v 0.3 1.6 -0.5
v 0.4 1.6 -0.5
v -0.2 1.6 -1.3
v -0.1 1.6 -1.3
v 2.98023e-008 1.6 -1.3
v 0.1 1.6 -1.3
v 0.2 1.6 -1.3
v 0.3 1.6 -1.3
v -0.1 1.6 -1.4
v 2.98023e-008 1.6 -1.4
v 0.1 1.6 -1.4
v 0.2 1.6 -1.4
v 2.98023e-008 1.7 0.9
v 0.1 1.7 0.9
v -0.1 1.7 0.7
v 2.98023e-008 1.7 0.7
v 0.1 1.7 0.7
v 0.2 1.7 0.7
v -0.2 1.7 0.4
v -0.1 1.7 0.4
v 2.98023e-008 1.7 0.4
v 0.1 1.7 0.4
v 0.2 1.7 0.4
v 0.3 1.7 0.4
v -0.2 1.7 0
v -0.1 1.7 0
v 0.2 1.7 0
v 0.3 1.7 0
v 2.98023e-008 1.8 1.1
v 0.1 1.8 1.1
v -0.1 1.8 0.9
v 2.98023e-008 1.8 0.9
v 0.1 1.8 0.9
v 0.2 1.8 0.9
v -0.2 1.8 0.7
v -0.1 1.8 0.7
v 2.98023e-008 1.8 0.7
v 0.1 1.8 0.7
v 0.2 1.8 0.7
v 0.3 1.8 0.7
v -0.2 1.8 0.4
v -0.1 1.8 0.4
v 0.2 1.8 0.4
v 0.3 1.8 0.4
v 2.98023e-008 1.9 1.1
v 0.1 1.9 1.1
v -0.1 1.9 0.9
v 2.98023e-008 1.9 0.9
v 0.1 1.9 0.9
v 0.2 1.9 0.9
v -0.2 1.9 0.7
v -0.1 1.9 0.7
v 2.98023e-008 1.9 0.7
v 0.1 1.9 0.7
v 0.2 1.9 0.7
v 0.3 1.9 0.7
v -0.3 1.9 -0.4
v -0.2 1.9 -0.4
v -0.1 1.9 -0.4
v 0.2 1.9 -0.4
v 0.3 1.9 -0.4
v 0.4 1.9 -0.4
v -0.3 1.9 -0.5
v -0.2 1.9 -0.5
v -0.1 1.9 -0.5
v 0.2 1.9 -0.5
v 0.3 1.9 -0.5
v 0.4 1.9 -0.5
v -0.2 1.9 -1.3
v -0.1 1.9 -1.3
v 0.2 1.9 -1.3
v 0.3 1.9 -1.3
v -0.1 1.9 -1.4
v 0.2 1.9 -1.4
v 2.98023e-008 2 0.9
v 0.1 2 0.9
v -0.1 2 0.7
v 2.98023e-008 2 0.7
v 0.1 2 0.7
v 0.2 2 0.7
v -0.2 2 -0.4
v -0.1 2 -0.4
v 0.2 2 -0.4
v 0.3 2 -0.4
v -0.2 2 -0.5
v -0.1 2 -0.5
v 0.2 2 -0.5
v 0.3 2 -0.5
v -0.1 2 -1.3
v 0.2 2 -1.3
v -0.1 2.1 -0.4
v 0.2 2.1 -0.4
v -0.1 2.1 -0.5
v 0.2 2.1 -0.5

# faces
f 3/1/1 2/1/1 1/1/1
f 4/1/1 2/1/1 3/1/1
f 8/1/1 6/1/1 5/1/1
f 9/1/1 6/1/1 8/1/1
f 12/2/1 8/2/1 7/2/1
f 14/2/1 12/2/1 11/2/1
f 15/2/1 14/2/1 13/2/1
f 16/2/1 8/2/1 12/2/1
f 16/2/1 14/2/1 15/2/1
f 16/2/1 12/2/1 14/2/1
f 17/1/1 10/1/1 9/1/1
f 18/1/1 10/1/1 17/1/1
f 19/1/1 17/1/1 16/1/1
f 20/1/1 17/1/1 19/1/1
f 24/1/1 22/1/1 21/1/1
f 25/1/1 22/1/1 24/1/1
f 28/2/1 24/2/1 23/2/1
f 29/2/1 24/2/1 28/2/1
f 30/1/1 26/1/1 25/1/1
f 31/1/1 26/1/1 30/1/1
f 34/2/1 28/2/1 27/2/1
f 35/2/1 28/2/1 34/2/1
f 37/2/1 34/2/1 33/2/1
f 38/2/1 34/2/1 37/2/1
f 39/2/1 37/2/1 36/2/1
f 40/2/1 37/2/1 39/2/1
f 43/1/1 32/1/1 31/1/1
f 44/1/1 32/1/1 43/1/1
f 45/2/1 41/2/1 40/2/1
f 46/2/1 41/2/1 45/2/1
f 47/1/1 43/1/1 42/1/1
f 48/1/1 43/1/1 47/1/1
f 49/1/1 47/1/1 46/1/1
f 50/1/1 47/1/1 49/1/1
f 54/1/1 52/1/1 51/1/1
f 55/1/1 52/1/1 54/1/1
f 58/2/1 54/2/1 53/2/1
f 59/2/1 54/2/1 58/2/1
f 60/1/1 56/1/1 55/1/1
f 61/1/1 56/1/1 60/1/1
f 64/2/1 58/2/1 57/2/1
f 65/2/1 58/2/1 64/2/1
f 66/1/1 62/1/1 61/1/1
f 67/1/1 62/1/1 66/1/1
f 69/2/1 64/2/1 63/2/1
f 70/2/1 64/2/1 69/2/1
f 72/2/1 69/2/1 68/2/1
f 73/2/1 69/2/1 72/2/1
f 74/2/1 72/2/1 71/2/1
f 75/2/1 72/2/1 74/2/1
f 77/2/1 76/2/1 75/2/1
f 78/2/1 76/2/1 77/2/1
f 79/1/2 80/1/2 82/1/2
f 82/1/2 80/1/2 83/1/2
f 81/2/2 82/2/2 86/2/2
f 86/2/2 82/2/2 87/2/2
f 83/1/2 84/1/2 88/1/2
f 88/1/2 84/1/2 89/1/2
f 85/2/2 86/2/2 92/2/2
f 92/2/2 86/2/2 93/2/2
f 89/1/2 90/1/2 94/1/2
f 94/1/2 90/1/2 95/1/2
f 91/2/2 92/2/2 97/2/2
f 97/2/2 92/2/2 98/2/2
f 96/2/2 97/2/2 100/2/2
f 100/2/2 97/2/2 101/2/2
f 99/2/2 100/2/2 102/2/2
f 102/2/2 100/2/2 103/2/2
f 103/2/2 104/2/2 105/2/2
f 105/2/2 104/2/2 106/2/2
f 107/1/2 108/1/2 110/1/2
f 110/1/2 108/1/2 111/1/2
f 109/2/2 110/2/2 114/2/2
f 114/2/2 110/2/2 115/2/2
f 111/1/2 112/1/2 116/1/2
f 116/1/2 112/1/2 117/1/2
f 113/2/2 114/2/2 120/2/2
f 120/2/2 114/2/2 121/2/2
f 119/2/2 120/2/2 123/2/2
f 123/2/2 120/2/2 124/2/2
f 122/2/2 123/2/2 125/2/2
f 125/2/2 123/2/2 126/2/2
f 117/1/2 118/1/2 129/1/2
f 129/1/2 118/1/2 130/1/2
f 126/2/2 127/2/2 131/2/2
f 131/2/2 127/2/2 132/2/2
f 128/1/2 129/1/2 133/1/2
f 133/1/2 129/1/2 134/1/2
f 132/1/2 133/1/2 135/1/2
f 135/1/2 133/1/2 136/1/2
f 137/1/2 138/1/2 140/1/2
f 140/1/2 138/1/2 141/1/2
f 139/2/2 140/2/2 144/2/2
f 143/2/2 144/2/2 146/2/2
f 145/2/2 146/2/2 147/2/2
f 144/2/2 140/2/2 148/2/2
f 147/2/2 146/2/2 148/2/2
f 146/2/2 144/2/2 148/2/2
f 141/1/2 142/1/2 149/1/2
f 149/1/2 142/1/2 150/1/2
f 148/1/2 149/1/2 151/1/2
f 151/1/2 149/1/2 152/1/2
f 153/1/2 154/1/2 155/1/2
f 155/1/2 154/1/2 156/1/2
f 159/2/3 158/2/3 157/2/3
f 160/2/3 158/2/3 159/2/3
f 164/2/3 162/2/3 161/2/3
f 165/2/3 162/2/3 164/2/3
f 167/2/3 164/2/3 163/2/3
f 168/2/3 164/2/3 167/2/3
f 169/2/3 166/2/3 165/2/3
f 170/2/3 166/2/3 169/2/3
f 171/2/3 169/2/3 168/2/3
f 172/2/3 169/2/3 171/2/3
f 176/2/3 174/2/3 173/2/3
f 177/2/3 174/2/3 176/2/3
f 180/2/3 176/2/3 175/2/3
f 181/2/3 176/2/3 180/2/3
f 182/2/3 178/2/3 177/2/3
f 183/2/3 178/2/3 182/2/3
f 184/2/3 180/2/3 179/2/3
f 185/2/3 180/2/3 184/2/3
f 189/2/3 186/2/3 185/2/3
f 190/2/3 186/2/3 189/2/3
f 191/2/3 188/2/3 187/2/3
f 192/2/3 188/2/3 191/2/3
f 193/2/3 191/2/3 190/2/3
f 194/2/3 191/2/3 193/2/3
f 198/2/3 196/2/3 195/2/3
f 199/2/3 196/2/3 198/2/3
f 201/2/3 198/2/3 197/2/3
f 202/2/3 198/2/3 201/2/3
f 203/2/3 201/2/3 200/2/3
f 204/2/3 201/2/3 203/2/3
f 206/2/3 205/2/3 204/2/3
f 207/2/3 205/2/3 206/2/3
f 209/2/3 208/2/3 207/2/3
f 210/2/3 208/2/3 209/2/3
f 214/2/3 212/2/3 211/2/3
f 215/2/3 212/2/3 214/2/3
f 217/2/3 214/2/3 213/2/3
f 218/2/3 214/2/3 217/2/3
f 219/2/3 217/2/3 216/2/3
f 220/2/3 217/2/3 219/2/3
f 222/2/3 221/2/3 220/2/3
f 223/2/3 221/2/3 222/2/3
f 225/2/3 224/2/3 223/2/3
f 226/2/3 224/2/3 225/2/3
f 230/1/3 228/1/3 227/1/3
f 231/1/3 228/1/3 230/1/3
f 234/1/3 230/1/3 229/1/3
f 235/1/3 230/1/3 234/1/3
f 236/1/3 232/1/3 231/1/3
f 237/1/3 232/1/3 236/1/3
f 240/1/3 234/1/3 233/1/3
f 241/1/3 234/1/3 240/1/3
f 242/1/3 240/1/3 239/1/3
f 243/1/3 240/1/3 242/1/3
f 245/1/3 244/1/3 243/1/3
f 246/1/3 244/1/3 245/1/3
f 249/1/3 238/1/3 237/1/3
f 250/1/3 238/1/3 249/1/3
f 251/1/3 247/1/3 246/1/3
f 252/1/3 247/1/3 251/1/3
f 253/1/3 249/1/3 248/1/3
f 254/1/3 249/1/3 253/1/3
f 255/1/3 253/1/3 252/1/3
f 256/1/3 253/1/3 255/1/3
f 257/1/4 258/1/4 260/1/4
f 260/1/4 258/1/4 261/1/4
f 259/1/4 260/1/4 264/1/4
f 264/1/4 260/1/4 265/1/4
f 261/1/4 262/1/4 266/1/4
f 266/1/4 262/1/4 267/1/4
f 263/1/4 264/1/4 270/1/4
f 270/1/4 264/1/4 271/1/4
f 269/1/4 270/1/4 272/1/4
f 272/1/4 270/1/4 273/1/4
f 273/1/4 274/1/4 275/1/4
f 275/1/4 274/1/4 276/1/4
f 267/1/4 268/1/4 279/1/4
f 279/1/4 268/1/4 280/1/4
f 276/1/4 277/1/4 281/1/4
f 281/1/4 277/1/4 282/1/4
f 278/1/4 279/1/4 283/1/4
f 283/1/4 279/1/4 284/1/4
f 282/1/4 283/1/4 285/1/4
f 285/1/4 283/1/4 286/1/4
f 287/1/4 288/1/4 290/1/4
f 290/1/4 288/1/4 291/1/4
f 289/1/4 290/1/4 294/1/4
f 294/1/4 290/1/4 295/1/4
f 293/1/4 294/1/4 296/1/4
f 296/1/4 294/1/4 297/1/4
f 297/1/4 298/1/4 299/1/4
f 299/1/4 298/1/4 300/1/4
f 291/1/4 292/1/4 301/1/4
f 301/1/4 292/1/4 302/1/4
f 300/1/4 301/1/4 303/1/4
f 303/1/4 301/1/4 304/1/4
f 305/1/4 306/1/4 308/1/4
f 307/1/4 308/1/4 309/1/4
f 308/1/4 306/1/4 310/1/4
f 309/1/4 308/1/4 310/1/4
f 310/1/4 306/1/4 311/1/4
f 311/1/4 306/1/4 312/1/4
f 315/1/5 314/1/5 313/1/5
f 316/1/5 314/1/5 315/1/5
f 320/2/5 318/2/5 317/2/5
f 321/2/5 318/2/5 320/2/5
f 323/1/5 320/1/5 319/1/5
f 324/1/5 320/1/5 323/1/5
f 325/1/5 322/1/5 321/1/5
f 326/1/5 322/1/5 325/1/5
f 327/1/5 325/1/5 324/1/5
f 328/1/5 325/1/5 327/1/5
f 332/2/5 330/2/5 329/2/5
f 333/2/5 330/2/5 332/2/5
f 336/2/5 332/2/5 331/2/5
f 337/2/5 332/2/5 336/2/5
f 338/2/5 334/2/5 333/2/5
f 339/2/5 334/2/5 338/2/5
f 341/1/5 336/1/5 335/1/5
f 342/1/5 336/1/5 341/1/5
f 345/1/5 340/1/5 339/1/5
f 346/1/5 340/1/5 345/1/5
f 347/1/5 343/1/5 342/1/5
f 348/1/5 343/1/5 347/1/5
f 349/1/5 345/1/5 344/1/5
f 350/1/5 345/1/5 349/1/5
f 351/1/5 349/1/5 348/1/5
f 352/1/5 349/1/5 351/1/5
f 356/2/5 354/2/5 353/2/5
f 357/2/5 354/2/5 356/2/5
f 360/2/5 356/2/5 355/2/5
f 361/2/5 356/2/5 360/2/5
f 362/2/5 358/2/5 357/2/5
f 363/2/5 358/2/5 362/2/5
f 366/2/5 360/2/5 359/2/5
f 367/2/5 360/2/5 366/2/5
f 368/2/5 364/2/5 363/2/5
f 369/2/5 364/2/5 368/2/5
f 371/1/5 366/1/5 365/1/5
f 372/1/5 366/1/5 371/1/5
f 375/1/5 370/1/5 369/1/5
f 376/1/5 370/1/5 375/1/5
f 377/1/5 373/1/5 372/1/5
f 378/1/5 373/1/5 377/1/5
f 381/1/5 375/1/5 374/1/5
f 382/1/5 375/1/5 381/1/5
f 383/1/5 379/1/5 378/1/5
f 384/1/5 379/1/5 383/1/5
f 385/1/5 381/1/5 380/1/5
f 386/1/5 381/1/5 385/1/5
f 390/2/5 388/2/5 387/2/5
f 391/2/5 388/2/5 390/2/5
f 394/2/5 390/2/5 389/2/5
f 395/2/5 390/2/5 394/2/5
f 396/2/5 392/2/5 391/2/5
f 397/2/5 392/2/5 396/2/5
f 399/2/5 394/2/5 393/2/5
f 400/2/5 394/2/5 399/2/5
f 401/2/5 398/2/5 397/2/5
f 402/2/5 398/2/5 401/2/5
f 406/2/5 404/2/5 403/2/5
f 407/2/5 404/2/5 406/2/5
f 410/2/5 406/2/5 405/2/5
f 411/2/5 406/2/5 410/2/5
f 412/2/5 408/2/5 407/2/5
f 413/2/5 408/2/5 412/2/5
f 415/2/5 410/2/5 409/2/5
f 416/2/5 410/2/5 415/2/5
f 417/2/5 414/2/5 413/2/5
f 418/2/5 414/2/5 417/2/5
f 419/2/6 420/2/6 422/2/6
f 422/2/6 420/2/6 423/2/6
f 421/2/6 422/2/6 426/2/6
f 426/2/6 422/2/6 427/2/6
f 423/2/6 424/2/6 428/2/6
f 428/2/6 424/2/6 429/2/6
f 425/2/6 426/2/6 432/2/6
f 432/2/6 426/2/6 433/2/6
f 429/2/6 430/2/6 434/2/6
f 434/2/6 430/2/6 435/2/6
f 431/1/6 432/1/6 437/1/6
f 437/1/6 432/1/6 438/1/6
f 435/1/6 436/1/6 441/1/6
f 441/1/6 436/1/6 442/1/6
f 438/1/6 439/1/6 443/1/6
f 443/1/6 439/1/6 444/1/6
f 440/1/6 441/1/6 445/1/6
f 445/1/6 441/1/6 446/1/6
f 444/1/6 445/1/6 447/1/6
f 447/1/6 445/1/6 448/1/6
f 449/2/6 450/2/6 452/2/6
f 452/2/6 450/2/6 453/2/6
f 451/2/6 452/2/6 456/2/6
f 453/2/6 454/2/6 456/2/6
f 452/2/6 453/2/6 456/2/6
f 456/2/6 454/2/6 457/2/6
f 455/1/6 456/1/6 459/1/6
f 459/1/6 456/1/6 460/1/6
f 457/1/6 458/1/6 461/1/6
f 461/1/6 458/1/6 462/1/6
f 460/1/6 461/1/6 463/1/6
f 463/1/6 461/1/6 464/1/6
f 465/1/6 466/1/6 467/1/6
f 467/1/6 466/1/6 468/1/6
